<!DOCTYPE svg PUBLIC "-//W3C//DTD SVG 1.1//EN" "http://www.w3.org/Graphics/SVG/1.1/DTD/svg11.dtd">
<!-- Uploaded to: SVG Repo, www.svgrepo.com, Transformed by: SVG Repo Mixer Tools -->
<svg fill="#000000" width="800px" height="800px" viewBox="0 0 24 24" id="work" data-name="Flat Color" xmlns="http://www.w3.org/2000/svg" class="icon flat-color">
<g id="SVGRepo_bgCarrier" stroke-width="0"/>
<g id="SVGRepo_tracerCarrier" stroke-linecap="round" stroke-linejoin="round"/>
<g id="SVGRepo_iconCarrier">
<path id="primary" d="M20,6H17V4a2,2,0,0,0-2-2H9A2,2,0,0,0,7,4V6H4A2,2,0,0,0,2,8V20a2,2,0,0,0,2,2H20a2,2,0,0,0,2-2V8A2,2,0,0,0,20,6ZM9,4h6V6H9Z" style="fill: #ffffff;"/>
<path id="secondary" d="M21.64,6.86A2,2,0,0,0,20,6H4a2,2,0,0,0-1.64.86,1,1,0,0,0-.1,1L4,12a5,5,0,0,0,4.6,3h6.72A5,5,0,0,0,20,12l1.78-4.15A1,1,0,0,0,21.64,6.86Z" style="fill: #592CA0;"/>
<rect id="primary-2" data-name="primary" x="10" y="12" width="4" height="4" rx="1" style="fill: #ffffff;"/>
</g>
</svg>