<!DOCTYPE svg PUBLIC "-//W3C//DTD SVG 1.1//EN" "http://www.w3.org/Graphics/SVG/1.1/DTD/svg11.dtd">
<!-- Uploaded to: SVG Repo, www.svgrepo.com, Transformed by: SVG Repo Mixer Tools -->
<svg width="800px" height="800px" viewBox="-2.4 -2.4 28.80 28.80" fill="none" xmlns="http://www.w3.org/2000/svg" transform="rotate(0)matrix(-1, 0, 0, 1, 0, 0)" stroke="#ffffff">
<g id="SVGRepo_bgCarrier" stroke-width="0">
<rect x="-2.4" y="-2.4" width="28.80" height="28.80" rx="14.4" fill="#ffffff" strokewidth="0"/>
</g>
<g id="SVGRepo_tracerCarrier" stroke-linecap="round" stroke-linejoin="round"/>
<g id="SVGRepo_iconCarrier"> <path d="M9 7H5C3.89543 7 3 7.89543 3 9V18C3 19.1046 3.89543 20 5 20H19C20.1046 20 21 19.1046 21 18V9C21 7.89543 20.1046 7 19 7H15M9 7V5C9 3.89543 9.89543 3 11 3H13C14.1046 3 15 3.89543 15 5V7M9 7H15" stroke="#920DE1" stroke-width="2" stroke-linecap="round" stroke-linejoin="round"/> </g>
</svg>