<svg width="121" height="30" fill="none" xmlns="http://www.w3.org/2000/svg"><path d="M10.523 28.714c-2.043 0-3.843-.494-5.43-1.513-1.585-1.019-2.805-2.377-3.72-4.014C.458 21.52 0 19.667 0 17.661c0-2.007.427-3.829 1.312-5.434.884-1.637 2.104-2.964 3.69-3.952 1.586-.988 3.386-1.513 5.46-1.513 1.952 0 3.66.463 5.124 1.39 1.22.71 2.166 1.666 2.898 2.809a.77.77 0 0 1-.396 1.142l-1.22.402a.736.736 0 0 1-.854-.34 6.022 6.022 0 0 0-2.197-2.007c-1.037-.618-2.196-.926-3.477-.926-1.403 0-2.715.37-3.843 1.111-1.129.741-2.044 1.76-2.715 3.057-.67 1.266-1.006 2.717-1.006 4.292 0 1.605.335 3.056 1.037 4.353.701 1.297 1.616 2.346 2.775 3.118 1.16.772 2.41 1.143 3.813 1.143.915 0 1.8-.155 2.654-.494.854-.34 1.586-.772 2.196-1.297a5.385 5.385 0 0 0 1.007-1.266.738.738 0 0 1 .854-.37l1.22.37c.457.124.67.649.457 1.08-.366.68-.854 1.297-1.464 1.884a9.221 9.221 0 0 1-3.05 1.853c-1.16.432-2.44.648-3.752.648zM45.51 27.85 37.64 8.215a.755.755 0 0 1 .701-1.05h1.22c.306 0 .58.185.702.494l6.497 16.734a.485.485 0 0 0 .915 0l6.527-16.734c.122-.278.397-.494.702-.494h1.067c.519 0 .885.556.702 1.05l-7.87 19.636a.77.77 0 0 1-.701.464H46.18a.628.628 0 0 1-.67-.463zM66.556 28.714c-2.013 0-3.813-.494-5.368-1.513a10.412 10.412 0 0 1-3.722-4.014c-.915-1.667-1.372-3.52-1.372-5.526 0-1.976.427-3.798 1.311-5.434a10.954 10.954 0 0 1 3.722-3.952c1.586-.988 3.355-1.513 5.368-1.513 2.074 0 3.874.494 5.43 1.513 1.555.988 2.744 2.315 3.599 3.982.884 1.637 1.311 3.397 1.311 5.373v.34a.753.753 0 0 1-.762.74H59.449c-.305 0-.55.278-.488.556.183 1.297.58 2.47 1.22 3.49a8.67 8.67 0 0 0 2.776 2.809 7 7 0 0 0 3.69 1.019c1.373 0 2.654-.34 3.844-1.05 1.037-.587 1.8-1.359 2.318-2.285.152-.278.518-.401.823-.34l.885.248c.457.123.701.679.457 1.111a7.03 7.03 0 0 1-1.586 1.883 10.038 10.038 0 0 1-3.08 1.853c-1.098.494-2.38.71-3.752.71zm-7.137-11.98h14.884c-.122-1.513-.518-2.84-1.25-4.013-.732-1.204-1.647-2.1-2.776-2.748a7.107 7.107 0 0 0-3.721-1.02c-1.373 0-2.593.34-3.721 1.02-1.129.648-2.044 1.574-2.776 2.748a8.586 8.586 0 0 0-1.16 3.458c-.03.277.214.555.52.555zM88.699 26.614a.75.75 0 0 1-.427.927c-.305.123-.671.278-1.129.463-.854.34-1.83.525-2.959.525-1.19 0-2.196-.34-3.08-1.02-.885-.678-1.312-1.697-1.312-3.056V9.85a.485.485 0 0 0-.488-.494h-1.647a.76.76 0 0 1-.763-.772v-.679a.76.76 0 0 1 .763-.772h1.647a.485.485 0 0 0 .488-.494V.772A.76.76 0 0 1 80.555 0h1.22a.76.76 0 0 1 .762.772v5.897c0 .278.214.494.488.494h3.57a.76.76 0 0 1 .762.772v.68a.76.76 0 0 1-.763.771h-3.569a.485.485 0 0 0-.488.494v13.863c.061.772.336 1.359.793 1.76.519.34 1.099.525 1.739.525.763 0 1.403-.124 2.013-.37a5.94 5.94 0 0 0 .427-.186.732.732 0 0 1 1.007.463l.183.68zM100.137 26.614a.75.75 0 0 1-.427.927c-.305.123-.67.278-1.128.463-.854.34-1.83.525-2.959.525-1.19 0-2.196-.34-3.08-1.02-.885-.678-1.312-1.697-1.312-3.056V9.85a.485.485 0 0 0-.488-.494h-1.678a.76.76 0 0 1-.762-.772v-.679a.76.76 0 0 1 .762-.772h1.647a.485.485 0 0 0 .488-.494V.772A.76.76 0 0 1 91.963 0h1.22a.76.76 0 0 1 .763.772v5.897c0 .278.213.494.488.494h3.568a.76.76 0 0 1 .763.772v.68a.76.76 0 0 1-.763.771h-3.568a.485.485 0 0 0-.488.494v13.863c.06.772.335 1.359.793 1.76.518.34 1.098.525 1.738.525.763 0 1.403-.124 2.013-.37a5.94 5.94 0 0 0 .427-.186.732.732 0 0 1 1.007.463l.213.68z" fill="#222F3E"/><path d="M109.806 28.591c-2.013 0-3.813-.494-5.368-1.513-1.587-.988-2.837-2.346-3.722-4.014-.915-1.667-1.372-3.52-1.372-5.526 0-1.976.427-3.798 1.311-5.434a10.952 10.952 0 0 1 3.722-3.952c1.586-.988 3.355-1.513 5.368-1.513 2.074 0 3.874.494 5.429 1.513 1.556.988 2.745 2.315 3.599 3.982.885 1.637 1.312 3.397 1.312 5.373v.34a.753.753 0 0 1-.763.74h-16.623c-.305 0-.549.278-.488.556.183 1.297.579 2.44 1.22 3.49a8.667 8.667 0 0 0 2.776 2.809 6.996 6.996 0 0 0 3.69 1.019c1.373 0 2.654-.34 3.844-1.05 1.037-.587 1.799-1.359 2.318-2.285.152-.278.518-.401.823-.34l.885.247c.457.124.701.68.457 1.112a7.02 7.02 0 0 1-1.586 1.883 10.028 10.028 0 0 1-3.08 1.853c-1.129.494-2.41.71-3.752.71zm-7.168-11.98h14.336c.305 0 .549-.277.488-.555-.153-1.297-.549-2.44-1.19-3.458-.732-1.205-1.647-2.1-2.775-2.748a7.11 7.11 0 0 0-3.722-1.02c-1.372 0-2.592.34-3.721 1.02-1.128.648-2.043 1.574-2.776 2.748a8.593 8.593 0 0 0-1.159 3.458c0 .308.244.555.519.555z" fill="#222F3E"/><path d="m35.688 7.01 2.135 17.63a3.044 3.044 0 0 1-2.624 3.395l-9.638 1.205c-1.647.216-3.142-.988-3.355-2.656L20.04 8.8a.586.586 0 0 1 .518-.648l1.556-.185c.305-.031.61.185.64.524l2.014 16.519c.091.833.854 1.42 1.677 1.327l7.23-.895c.823-.093 1.402-.865 1.31-1.698l-2.012-16.58a.586.586 0 0 1 .518-.649l1.403-.185c.366-.062.763.247.794.68z" fill="#ACBAC9"/><path d="m32.516 23.805-5.338.648a.669.669 0 0 1-.762-.617l-.671-5.465-.458-3.829c-.03-.154.122-.247.244-.216l.793.247c1.586.463 3.264.433 4.82-.154l.64-.247c.122-.03.244.03.244.154l1.037 8.676c.092.402-.183.772-.549.803z" fill="#0B66EF"/></svg>