<svg xmlns="http://www.w3.org/2000/svg" data-name="Layer 1" width="657.991" height="512.53"><path d="M259.692 136.023a13.114 13.114 0 0 0-.758 1.922l-59.16 17.83-10.955-10.263-17.65 14.507 17.626 20.054a9.967 9.967 0 0 0 11.71 2.449l63.678-29.778a13.079 13.079 0 1 0-4.491-16.72z" fill="#ffb6b6"/><path d="m197.81 156.497-21.766 18.114a5.607 5.607 0 0 1-8.375-1.394l-14.684-24.112a15.571 15.571 0 0 1 23.995-19.85l20.98 18.753a5.607 5.607 0 0 1-.15 8.489z" fill="#3f3d56"/><path d="m256.258 458.086 9.474-6.035a141.39 141.39 0 0 0 .407-15.931l-4.914 1.255 4.85-3.09c-.267-6.569-.86-10.901-.86-10.901s-19.155 12.442-31.372 29.306l2.083 14.263-4.968-9.974a57.199 57.199 0 0 0-3.418 6.324c-10.065 21.989-11.043 43.101-2.184 47.156s24.2-10.483 34.265-32.472a75.309 75.309 0 0 0 5.735-22.225z" fill="#e6e6e6"/><path d="m275.719 479.31 11.23-.269a141.387 141.387 0 0 0 8.583-13.427l-4.856-1.466 5.75-.138c3.166-5.761 4.897-9.777 4.897-9.777s-22.828.75-42.004 8.872l-5.589 13.286.903-11.106a57.201 57.201 0 0 0-6.195 3.647c-19.982 13.62-31.732 31.188-26.245 39.239s26.135 3.535 46.117-10.086a75.309 75.309 0 0 0 16.398-16.061z" fill="#e6e6e6"/><path fill="#ffb6b6" d="m209.349 499.141 12.26-.001 4.599-47.686-16.861.399.002 47.288z"/><path d="M206.222 495.138h24.145a15.387 15.387 0 0 1 15.386 15.385v.5l-39.53.002z" fill="#2f2e41"/><path fill="#ffb6b6" d="m64.712 463.751 8.041 9.254 39.522-26.611-11.868-13.659-35.695 31.016z"/><path d="m65.683 458.765 15.835 18.225h.001a15.387 15.387 0 0 1-1.523 21.707l-.378.328-25.927-29.84z" fill="#2f2e41"/><path d="M1.19 512.53h334.295a1.19 1.19 0 1 0 0-2.381H1.19a1.19 1.19 0 1 0 0 2.381z" fill="#cacaca"/><path d="m182.414 386.892 25.794 95.562h20l-4.393-104.514-11.594-101.826-42.116-2.238z" fill="#2f2e41"/><path d="M137.655 276.114s-2.238 14.547 6.714 30.212 3.357 68.257 3.357 68.257l-75.518 75.871s11.737 20.36 17.331 19.242 93.994-72.733 93.994-72.733L212.22 280.59z" fill="#2f2e41"/><circle cx="179.295" cy="80.986" r="25.736" fill="#ffb6b6"/><path d="M178.208 121.454s-30-11.357-30-8-29.575 31.741-22.862 68.667 14.547 54.83 11.19 74.97-1.119 24.618-1.119 24.618 77.923 6.714 79.041-1.119-3.25-19.779-3.25-23.136-30.919-127.361-33-136z" fill="#3f3d56"/><path d="M167.646 96.451c2.084-1.101 4.504-1.328 6.76-2.013 8.067-2.45 13.472-11.57 11.747-19.824a10.115 10.115 0 0 1-.424-3.267c.302-2.445 2.803-4.022 5.201-4.582s4.95-.479 7.243-1.38c3.54-1.39 5.89-5.028 6.4-8.796a18.171 18.171 0 0 0-2.427-10.952l-.866 2.493a9.247 9.247 0 0 1-2.83-4.234 5.832 5.832 0 0 0-4.444 3.573c-1.391.82-1.591-2.547-3.127-3.044a2.76 2.76 0 0 0-1.918.473c-3.095 1.443-6.691.21-10.011-.591a37.688 37.688 0 0 0-17.496-.02c-3.821.911-7.604 2.498-10.34 5.32a24.808 24.808 0 0 0-4.836 8.31c-2.933 7.383-4.87 15.37-3.903 23.254a32.915 32.915 0 0 0 7.757 17.44c2.215 2.551 9.44 11.453 13.402 9.936 4.979-1.907-1.753-8.994 4.112-12.096z" fill="#2f2e41"/><path transform="rotate(-69.123 192.209 652.15)" opacity=".2" style="isolation:isolate" d="M427.016 551.517h82.629v1.592h-82.629z"/><path d="M274.87 124.455a7.074 7.074 0 0 0-7.066 7.066v78.541a7.074 7.074 0 0 0 7.065 7.066h376.057a7.074 7.074 0 0 0 7.065-7.066v-78.541a7.074 7.074 0 0 0-7.065-7.066z" fill="#e6e6e6"/><path d="M277.41 129.965a4.101 4.101 0 0 0-4.097 4.096v73.461a4.101 4.101 0 0 0 4.097 4.096h370.975a4.1 4.1 0 0 0 4.096-4.096v-73.461a4.1 4.1 0 0 0-4.096-4.096z" fill="#fff"/><path d="M625.093 191.474a6.656 6.656 0 0 0 .018-13.312H311.313a6.656 6.656 0 0 0 0 13.312z" fill="#e6e6e6"/><path d="M446.334 162.558a6.656 6.656 0 1 0 0-13.312h-135.02a6.656 6.656 0 1 0 0 13.312z" fill="#a30cfd"/><path d="M329.833 276a5.006 5.006 0 0 0-5 5v55.583a5.006 5.006 0 0 0 5 5h266.13a5.006 5.006 0 0 0 5-5V281a5.006 5.006 0 0 0-5-5z" fill="#e6e6e6"/><path d="M331.63 279.899a2.902 2.902 0 0 0-2.899 2.899v51.987a2.902 2.902 0 0 0 2.9 2.9h262.534a2.902 2.902 0 0 0 2.898-2.9v-51.987a2.902 2.902 0 0 0-2.898-2.9z" fill="#fff"/><path d="M577.681 323.428a4.71 4.71 0 0 0 .013-9.42h-222.07a4.71 4.71 0 0 0 0 9.42z" fill="#e6e6e6"/><path d="M451.176 302.965a4.71 4.71 0 1 0 0-9.421h-95.552a4.71 4.71 0 1 0 0 9.42z" fill="#e4e4e4"/><path d="M329.833 0a5.006 5.006 0 0 0-5 5v55.583a5.006 5.006 0 0 0 5 5h266.13a5.006 5.006 0 0 0 5-5V5a5.006 5.006 0 0 0-5-5z" fill="#e6e6e6"/><path d="M331.63 3.899a2.902 2.902 0 0 0-2.899 2.899v51.987a2.902 2.902 0 0 0 2.9 2.9h262.534a2.902 2.902 0 0 0 2.898-2.9V6.798a2.902 2.902 0 0 0-2.898-2.9z" fill="#fff"/><path d="M577.681 47.428a4.71 4.71 0 0 0 .013-9.42h-222.07a4.71 4.71 0 0 0 0 9.42z" fill="#e6e6e6"/><path d="M451.176 26.965a4.71 4.71 0 1 0 0-9.421h-95.552a4.71 4.71 0 1 0 0 9.42z" fill="#e4e4e4"/><path d="M251.457 181.114a13.115 13.115 0 0 0-1.374 1.542l-61.68-3.69-6.737-13.415-21.573 7.522 9.619 24.906a9.967 9.967 0 0 0 10.143 6.34l70.045-5.962a13.079 13.079 0 1 0 1.557-17.243z" fill="#ffb6b6"/><path d="m186.311 178.965-26.68 9.485a5.607 5.607 0 0 1-7.38-4.199l-5.456-27.699a15.571 15.571 0 0 1 29.373-10.345l13.216 24.843a5.607 5.607 0 0 1-3.073 7.915z" fill="#3f3d56"/><circle cx="277.991" cy="132.618" r="17" fill="#a30cfd"/></svg>